PathFileType	4	(X/Y/Z)	D:\TRACE\v60_Jaco2_6-2-23\BothDRS_Motion1_2-v60.trc
DataRate	CameraRate	NumFrames	NumMarkers	Units	OrigDataRate	OrigDataStartFrame	OrigNumFrames
100.00	100.00	      17	9	mm	100.00	1	      6970
Frame#	Time	front left toe			Front right toe			aft left toe			aft right toe			Arm			FL body			FR body			AL Body			AR Body			
		X1	Y1	Z1	X2	Y2	Z2	X3	Y3	Z3	X4	Y4	Z4	X5	Y5	Z5	X6	Y6	Z6	X7	Y7	Z7	X8	Y8	Z8	X9	Y9	Z9	

1	0.000	-179.40930	20.47536	-379.56702	238.72496	18.35981	-361.35944	-203.77946	14.82068	257.90646	196.44453	16.63823	249.23630	56.08995	1211.29614	-390.73688	-37.59084	579.44324	-503.66736	121.72775	578.86017	-497.46774	-76.84914	583.51794	441.86957	82.82516	576.81299	449.42123	
2	0.010	-179.34846	20.43432	-379.55573	238.75848	18.35577	-361.34561	-204.43401	15.18182	257.86563	196.55466	16.67395	249.25009	56.09854	1211.30713	-390.72632	-37.54068	579.41724	-503.67108	121.74196	578.89050	-497.45782	-76.90316	583.47461	441.85696	82.80642	576.80328	449.42612	
3	0.020	-179.45158	20.46926	-379.60443	238.71487	18.35903	-361.32782	-204.45886	15.24150	257.88092	196.45865	16.62659	249.24835	56.02751	1211.28870	-390.71796	-37.52698	579.42188	-503.68292	121.74019	578.84320	-497.45050	-76.86354	583.53625	441.86404	82.79749	576.82233	449.41852	
4	0.030	-179.38858	20.49335	-379.58557	238.75150	18.36117	-361.36203	-204.49344	15.24211	257.90891	196.56042	16.65978	249.25916	56.06449	1211.30225	-390.71896	-37.48543	579.40961	-503.69781	121.72127	578.87445	-497.47723	-76.89494	583.52747	441.84601	82.84092	576.81860	449.43048	
5	0.040	-179.37543	20.47710	-379.62112	238.74789	18.36472	-361.33658	-203.85025	14.86021	257.92670	196.51041	16.65755	249.26494	56.11382	1211.30286	-390.71204	-37.52262	579.41241	-503.67575	121.73756	578.88300	-497.48233	-76.86333	583.50616	441.85629	82.77483	576.84955	449.42545	
6	0.050	-179.30399	20.43632	-379.55072	238.74614	18.35966	-361.32816	-203.84305	14.85292	257.89172	196.57497	16.68300	249.27101	56.10931	1211.31104	-390.70450	-37.47280	579.36755	-503.66064	121.67879	578.87140	-497.48953	-76.93211	583.53503	441.85062	82.87016	576.79761	449.43542	
7	0.060	-179.38528	20.46854	-379.54779	238.75996	18.37584	-361.32904	-204.44444	15.20877	257.87448	196.58549	16.71397	249.25987	56.09643	1211.28882	-390.71707	-37.57417	579.44977	-503.68262	121.71802	578.86816	-497.47180	-76.85958	583.54364	441.85782	82.82958	576.81519	449.42709	
8	0.070	-179.39590	20.46845	-379.56708	238.76216	18.36625	-361.36261	-203.81458	14.83627	257.90054	196.61975	16.70403	249.28680	56.09800	1211.30103	-390.72787	-37.49316	579.41852	-503.68497	121.73388	578.88879	-497.47418	-76.93867	583.53583	441.84106	82.82092	576.81946	449.41266	
9	0.080	-179.45747	20.53359	-379.56497	238.72168	18.34753	-361.36121	-203.73882	14.78935	257.88788	196.49968	16.65740	249.27005	56.03437	1211.29456	-390.73618	-37.58496	579.40515	-503.63419	121.73345	578.87012	-497.47836	-76.89011	583.51971	441.85294	82.78544	576.83246	449.40790	
10	0.090	-179.40648	20.48814	-379.59866	238.73903	18.34509	-361.32126	-203.84093	14.87479	257.88193	196.55385	16.67414	249.27206	56.11255	1211.30090	-390.69638	-37.56155	579.44391	-503.69638	121.68286	578.89471	-497.50955	-76.93354	583.53375	441.85953	82.83165	576.83185	449.42725	
11	0.100	-179.40862	20.48141	-379.59229	238.74774	18.34227	-361.32901	-203.80124	14.82963	257.89709	196.55824	16.66577	249.29149	56.08549	1211.26917	-390.71640	-37.55444	579.44067	-503.68237	121.64499	578.86572	-497.49081	-76.93159	583.49701	441.86066	82.82484	576.81946	449.42416	
12	0.110	-179.37624	20.43061	-379.54495	238.73793	18.34221	-361.33707	-203.77043	14.83983	257.89764	196.55731	16.66581	249.25853	56.05951	1211.27612	-390.74310	-37.54336	579.39868	-503.68314	121.68035	578.86523	-497.50388	-76.87742	583.48651	441.85312	82.83527	576.81329	449.41614	
13	0.120	-179.33897	20.43152	-379.60419	238.76424	18.35411	-361.35699	-203.78114	14.82453	257.91177	196.57701	16.67714	249.25829	56.12945	1211.29626	-390.71106	-37.55522	579.37531	-503.66592	121.65457	578.86505	-497.52747	-76.88120	583.46570	441.86499	82.83154	576.79742	449.44962	
14	0.130	-179.42952	20.47575	-379.56018	238.76215	18.35405	-361.35962	-204.41310	15.16464	257.90186	196.55812	16.67149	249.28650	56.12080	1211.30078	-390.72147	-37.47526	579.36713	-503.66504	121.66516	578.86743	-497.51401	-76.82922	583.51532	441.86221	82.79786	576.82208	449.42847	
15	0.140	-179.38876	20.42279	-379.62381	238.75177	18.34483	-361.35855	-204.44693	15.20584	257.88803	196.51920	16.65509	249.26234	56.05500	1211.32129	-390.70233	-37.51739	579.40167	-503.66428	121.70879	578.87732	-497.50790	-76.89713	583.52661	441.87750	82.78394	576.83563	449.43964	
16	0.150	-179.33951	20.41770	-379.55820	238.75882	18.32577	-361.33795	-203.86217	14.86406	257.89389	196.58540	16.67126	249.30876	56.10341	1211.27551	-390.74008	-37.60859	579.44159	-503.68066	121.75276	578.87366	-497.46658	-76.86091	583.52448	441.87958	82.83154	576.80243	449.42184	
17	0.160	-179.47133	20.46481	-379.63205	238.75858	18.33534	-361.33514	-203.86282	14.87340	257.92639	196.47192	16.61126	249.24908	56.05229	1211.27026	-390.73233	-37.56951	579.44806	-503.68332	121.66994	578.89178	-497.53357	-76.90823	583.52246	441.85306	82.81327	576.81909	449.43414	
